<svg height="207.802354" viewBox="0 0 132.48 56.721" width="481.226503" xmlns="http://www.w3.org/2000/svg"><g transform="matrix(1.3333 0 0 -1.3333 -291.4924052732 591.5448812113)"><path d="m218.62 427.36v-7.185l4.716 10.546 2.843-6.812 1.889 3.985 1.857-3.891 2.844 6.278 2.806-6.372 1.889 3.546 1.89-3.546 2.843 6.153 4.718-9.877.002 7.175-3.093 6.467-11.055 2.079-8.898 3.176z" fill="#fff"/><path d="m258.26 437.54-1.049 2.676-1.062-2.676zm-2.286 5.77h2.514l4.009-9.482h-2.799l-.684 1.681h-3.632l-.672-1.681-2.745-.001z" fill="#231f20"/><path d="m0 0-2.843-6.153-1.89 3.546-1.889-3.546-2.807 6.372-2.843-6.278-1.857 3.891-1.89-3.986-2.842 6.812-4.716-10.545v-1.487h28.296l-.001 1.497z" fill="#6cbd55" transform="translate(242.2 430.06)"/><path d="m0 0v-4.411l-14.148-4.371-14.148 4.371v4.411z" fill="#231f20" transform="translate(246.92 409.9)"/><g fill="#0b4476"><path d="m88.816 537.64h-28.296v4.397h28.296z" transform="translate(158.1 -123.35)"/><path d="m0 0v15.951h28.296v-15.951l-3.092 6.468-11.056 2.077-8.897 3.177z" transform="translate(218.62 427.36)"/></g><path d="m88.816 533.24h-28.296v4.396h28.296z" fill="#c09c0f" transform="translate(158.1 -123.35)"/><g fill="#231f20"><path d="m263.39 443.65h2.555v-9.817h-2.555z"/><path d="m0 0v.026c0 .956-.658 1.642-1.492 1.642-.82 0-1.48-.686-1.48-1.642v-.026c0-.968.66-1.655 1.48-1.655.834 0 1.492.673 1.492 1.655m-2.918-2.744v-.888h-2.556v9.819h2.556v-3.511c.498.605 1.117 1.129 2.207 1.129 1.734 0 3.226-1.438 3.226-3.765v-.027c0-2.367-1.492-3.806-3.213-3.806-1.103 0-1.748.497-2.22 1.049" transform="translate(272.63 437.46)"/><path d="m0 0c-.093.807-.565 1.318-1.263 1.318-.673 0-1.13-.525-1.265-1.318zm-4.949-.633v.027c0 2.126 1.52 3.806 3.671 3.806 2.515 0 3.672-1.842 3.672-3.98 0-.161 0-.349-.014-.524h-4.868c.202-.793.781-1.197 1.574-1.197.605 0 1.089.228 1.613.739l1.413-1.17c-.7-.888-1.708-1.479-3.16-1.479-2.287 0-3.901 1.52-3.901 3.778" transform="translate(280.85 438.07)"/><path d="m0 0h2.556v-1.466c.417.995 1.09 1.64 2.3 1.587v-2.69h-.216c-1.331 0-2.084-.767-2.084-2.448v-2.259h-2.556z" transform="translate(284.08 441.11)"/><path d="m0 0v2.959h-.859v2.058h.859v2.548h2.556v-2.548h1.695v-2.058h-1.695v-2.462c0-.51.229-.725.699-.725.336 0 .659.094.968.242v-2.004c-.456-.256-1.062-.417-1.775-.417-1.532 0-2.448.673-2.448 2.407" transform="translate(290.65 436.09)"/><path d="m0 0v.337c-.255.107-.619.187-.995.187-.74 0-1.17-.362-1.17-.901v-.027c0-.497.376-.793.901-.793.74 0 1.264.471 1.264 1.197m-4.625-.552v.028c0 1.506 1.142 2.286 2.85 2.286.672 0 1.332-.135 1.748-.283v.122c0 .752-.471 1.183-1.452 1.183-.767 0-1.359-.148-2.004-.404l-.524 1.802c.82.337 1.694.566 2.945.566 1.304 0 2.191-.31 2.77-.888.552-.538.78-1.292.78-2.313v-4.183h-2.528v.753c-.498-.551-1.184-.914-2.139-.914-1.385 0-2.446.793-2.446 2.245" transform="translate(300.33 436.47)"/><path d="m0 0c.888 0 1.399.431 1.399 1.116v.027c0 .74-.539 1.116-1.411 1.116h-1.71v-2.259zm-4.331 4.519h4.452c1.44 0 2.434-.376 3.066-1.023.552-.537.834-1.263.834-2.191v-.027c0-1.439-.767-2.394-1.935-2.892l2.245-3.281h-3.013l-1.897 2.851h-1.143v-2.851h-2.609z" transform="translate(256.71 410.38)"/><path d="m0 0c-.095.806-.565 1.319-1.263 1.319-.673 0-1.13-.525-1.264-1.319zm-4.948-.632v.028c0 2.124 1.52 3.804 3.671 3.804 2.515 0 3.672-1.842 3.672-3.98 0-.162 0-.349-.014-.524h-4.867c.201-.794.778-1.197 1.571-1.197.606 0 1.089.228 1.616.74l1.411-1.171c-.699-.888-1.709-1.478-3.161-1.478-2.285 0-3.899 1.52-3.899 3.778" transform="translate(266.22 409.72)"/><path d="m0 0v.027c0 .807-.619 1.399-1.48 1.399-.874 0-1.492-.605-1.492-1.412v-.027c0-.808.618-1.399 1.492-1.399.861 0 1.48.605 1.48 1.412m-5.272-5.366.82 1.694c.781-.43 1.56-.685 2.542-.685 1.279 0 1.91.632 1.91 1.788v.283c-.512-.592-1.185-1.089-2.247-1.089-1.788 0-3.227 1.29-3.227 3.375v.027c0 2.098 1.466 3.389 3.147 3.389 1.089 0 1.735-.443 2.286-1.021v.86h2.556v-5.528c0-1.331-.296-2.259-.942-2.904-.659-.659-1.681-1.023-3.2-1.023-1.413 0-2.595.296-3.645.834" transform="translate(274.87 409.51)"/><path d="m0 0v4.761h2.555v-3.941c0-.793.418-1.223 1.036-1.223.605 0 1.062.43 1.062 1.223v3.941h2.555v-7.276h-2.555v.996c-.47-.606-1.142-1.158-2.179-1.158-1.546 0-2.474 1.023-2.474 2.677" transform="translate(278.6 408)"/><path d="m128.92 538.65h2.556v-9.817h-2.556z" transform="translate(158.1 -123.35)"/><path d="m0 0v.336c-.257.107-.619.189-.995.189-.741 0-1.171-.363-1.171-.901v-.028c0-.497.376-.793.901-.793.741 0 1.265.471 1.265 1.197m-4.626-.552v.028c0 1.506 1.143 2.285 2.851 2.285.672 0 1.33-.134 1.747-.282v.121c0 .753-.47 1.184-1.452 1.184-.767 0-1.358-.148-2.003-.403l-.526 1.801c.821.337 1.695.566 2.946.566 1.305 0 2.193-.31 2.771-.888.551-.539.78-1.291.78-2.313v-4.183h-2.529v.754c-.498-.552-1.184-.916-2.138-.916-1.386 0-2.447.794-2.447 2.246" transform="translate(295.03 408.12)"/><path d="m0 0v2.958h-.86v2.058h.86v2.545h2.556v-2.545h1.694v-2.058h-1.694v-2.461c0-.511.229-.726.698-.726.337 0 .66.095.969.242v-2.004c-.457-.255-1.062-.416-1.775-.416-1.532 0-2.448.672-2.448 2.407" transform="translate(299.2 407.75)"/><path d="m0 0v.027c0 .887-.646 1.641-1.547 1.641-.928 0-1.52-.74-1.52-1.615v-.026c0-.887.645-1.642 1.548-1.642.927 0 1.519.741 1.519 1.615m-5.555 0v.027c0 2.07 1.694 3.805 4.036 3.805 2.326 0 4.007-1.707 4.007-3.779v-.026c0-2.072-1.694-3.806-4.035-3.806-2.327 0-4.008 1.708-4.008 3.779" transform="translate(309.8 409.09)"/><path d="m0 0h2.555v-1.466c.417.996 1.089 1.641 2.299 1.587v-2.69h-.215c-1.331 0-2.084-.767-2.084-2.447v-2.26h-2.555z" transform="translate(313.13 412.76)"/><path d="m0 0h7.573v-2.219h-4.99v-1.426h4.519v-2.057h-4.519v-1.493h5.056v-2.219h-7.639z" transform="translate(252.38 429.24)"/><path d="m0 0h2.556v-1.023c.471.606 1.143 1.184 2.178 1.184 1.548 0 2.475-1.022 2.475-2.676v-4.761h-2.555v3.94c0 .794-.417 1.224-1.023 1.224-.618 0-1.075-.43-1.075-1.224v-3.94h-2.556z" transform="translate(261.23 427.11)"/><path d="m0 0c-.093.806-.565 1.318-1.264 1.318-.672 0-1.129-.525-1.265-1.318zm-4.949-.631v.025c0 2.125 1.52 3.807 3.671 3.807 2.514 0 3.672-1.843 3.672-3.981 0-.161 0-.35-.014-.525h-4.868c.201-.793.781-1.196 1.574-1.196.605 0 1.089.228 1.614.74l1.411-1.17c-.699-.888-1.708-1.48-3.16-1.48-2.285 0-3.9 1.52-3.9 3.78" transform="translate(274.22 424.07)"/><path d="m0 0h2.555v-1.466c.418.995 1.09 1.641 2.299 1.587v-2.69h-.214c-1.331 0-2.085-.767-2.085-2.448v-2.259h-2.555z" transform="translate(277.45 427.11)"/><path d="m0 0v.028c0 .806-.618 1.399-1.478 1.399-.875 0-1.493-.606-1.493-1.413v-.027c0-.806.618-1.398 1.493-1.398.86 0 1.478.604 1.478 1.411m-5.271-5.365.821 1.694c.78-.43 1.559-.686 2.541-.686 1.278 0 1.909.632 1.909 1.789v.283c-.51-.592-1.182-1.09-2.245-1.09-1.788 0-3.228 1.291-3.228 3.375v.028c0 2.097 1.466 3.389 3.147 3.389 1.09 0 1.736-.444 2.287-1.022v.861h2.555v-5.528c0-1.331-.296-2.26-.942-2.905-.658-.659-1.681-1.023-3.201-1.023-1.411 0-2.594.297-3.644.835" transform="translate(288.46 423.85)"/><path d="m0 0 .795 1.788c.402-.242.832-.389 1.115-.389.257 0 .43.066.592.296l-2.851 7.141h2.676l1.453-4.385 1.372 4.385h2.623l-2.664-7.101c-.631-1.695-1.317-2.367-2.771-2.367-.901 0-1.667.255-2.34.632" transform="translate(292.14 418.27)"/></g></g></svg>